<svg aria-hidden="true" style="position: absolute; width: 0; height: 0; overflow: hidden;" version="1.1" xmlns="http://www.w3.org/2000/svg" xmlns:xlink="http://www.w3.org/1999/xlink">
<defs>
<symbol id="applause" viewBox="0 0 32 32">
<path d="M15.43 10c1.945 0.008 3.68 0.008 4.805 0.008 2-0.008 2.891-1.969 1.586-3.484l-0.883-1.016c-0.547-0.633-0.547-1.578 0.008-2.211l-0.039 0.047c0.414-0.445 1.133-0.461 1.563-0.031 0.008 0.016 0.023 0.031 0.039 0.039l5.094 4.719c0.008 0.008 0.016 0.016 0.016 0.023 0.875 0.781 1.375 1.891 1.383 2.813v8.172s0.039 2.859-3.055 2.859c-0.828 0-1.5 0.672-1.5 1.5s0.672 1.5 1.5 1.5c1.563 0 2.844-0.648 2.93-0.695 1.578-0.75 3.125-2.336 3.125-5.164v-8.18c-0.008-1.828-0.953-3.766-2.383-5.047l0.023 0.023-5.055-4.688c-1.641-1.633-4.289-1.586-5.867 0.102-0.016 0.016-0.023 0.031-0.039 0.039-1.531 1.766-1.531 4.375-0.008 6.141l0.875 1.016c0.008 0.008 0 0 0 0s-0.023-0.047-0.023-0.047-0.031-0.078-0.031-0.078-0.031-0.102-0.031-0.102 0.531-1.172 0.531-1.172 0.086-0.039 0.086-0.039 0.086-0.031 0.086-0.031 0.063-0.008 0.063-0.008 0.008 0 0 0c-1.117 0-2.844 0-4.781-0.008-0.828 0-1.5 0.664-1.508 1.492s0.664 1.5 1.492 1.508z"></path>
<path d="M4.031 10.117c0.57-0.57 1.492-0.57 2.055 0l6.688 6.68s0.516 0.516 1.031 0c0.516-0.508 0-1.023 0-1.023l-4.633-4.633c-0.57-0.57-0.57-1.484 0-2.055s1.492-0.57 2.063 0l8.484 8.492c0.141 0.141 0.258 0.094 0.258-0.109 0-0.672 0.016-2.172 0.016-3.492 0.008-1.094 0.891-1.977 1.984-1.977h0.047c1.094 0 1.977 0.883 1.977 1.977v6.422c0.086 1.547-0.484 3.133-1.453 4.117l-6.172 6.172c-3.086 3.086-6.172 0-6.172 0l-8.227-8.227c-0.57-0.57-0.57-1.492 0-2.063s1.484-0.57 2.055 0l3.602 3.602s0.516 0.516 1.031 0c0.508-0.516 0-1.031 0-1.031l-6.688-6.68c-0.57-0.57-0.57-1.492 0-2.063s1.484-0.57 2.055 0l5.656 5.656s0.516 0.516 1.031 0c0.516-0.508 0-1.023 0-1.023l-6.688-6.688c-0.57-0.57-0.57-1.484 0-2.055z"></path>
<path d="M11.531 0.039c-0.039 0-0.070 0-0.102 0.008-3.328 0.328-6.109 1.531-8.086 3.516-1.984 1.984-3.141 4.719-3.344 7.938-0.016 0.266 0.078 0.523 0.25 0.727 0.172 0.195 0.422 0.32 0.688 0.336 0.547 0.039 1.031-0.383 1.063-0.938 0.18-2.828 1.141-5.039 2.758-6.648 1.609-1.609 3.898-2.648 6.867-2.945 0.547-0.055 0.945-0.547 0.898-1.094-0.055-0.516-0.492-0.898-0.992-0.898zM11.891 3.852c-0.039 0-0.070 0-0.102 0.008-2.313 0.266-4.203 1.094-5.547 2.477-0.633 0.641-1.133 1.383-1.523 2.227 0.688-0.086 1.398 0.086 1.969 0.531 0.273-0.523 0.594-0.977 0.984-1.367 0.984-1.008 2.367-1.656 4.344-1.883 0.547-0.070 0.938-0.563 0.875-1.109-0.063-0.516-0.5-0.891-1-0.883z"></path>
</symbol>
<symbol id="cat-sleeping" viewBox="0 0 32 32">
<path d="M10 11.992c-4.414 0-7.984 3.57-7.984 7.984 0 4.422 3.57 7.984 7.984 7.984h12c4.414 0 7.984-3.563 7.984-7.984 0-4.414-3.57-7.984-7.984-7.984zM10 13.992h12c3.352 0 5.984 2.633 5.984 5.984 0 3.359-2.633 5.984-5.984 5.984h-12c-3.352 0-5.984-2.625-5.984-5.984 0-3.352 2.633-5.984 5.984-5.984z"></path>
<path d="M8 17.977c-0.555 0-1 0.453-1 1 0 1.164 0.773 2.164 1.828 2.656s2.289 0.492 3.344 0c1.055-0.492 1.828-1.492 1.828-2.656 0-0.547-0.445-1-1-1s-1 0.453-1 1c0 0.281-0.18 0.609-0.672 0.836-0.492 0.234-1.164 0.234-1.656 0-0.492-0.227-0.672-0.555-0.672-0.836 0-0.547-0.445-1-1-1z"></path>
<path d="M18.984 17.977c-0.555 0-1 0.453-1 1 0 1.164 0.773 2.164 1.828 2.656s2.281 0.492 3.336 0c1.063-0.492 1.828-1.492 1.828-2.656 0-0.547-0.445-1-1-1-0.547 0-1 0.453-1 1 0 0.281-0.172 0.609-0.664 0.836-0.492 0.234-1.164 0.234-1.656 0-0.492-0.227-0.672-0.555-0.672-0.836 0-0.547-0.445-1-1-1z"></path>
<path d="M9.844 0.063l-8.625 14.938c-0.555 0.953-0.219 2.18 0.734 2.727 0.953 0.555 2.18 0.227 2.734-0.727l5.133-8.898 2.781 4.867c0.547 0.961 1.766 1.297 2.727 0.75s1.289-1.766 0.75-2.727z"></path>
<path d="M22.047 0.063l-6.227 10.93c-0.547 0.961-0.211 2.18 0.742 2.727 0.961 0.547 2.18 0.211 2.727-0.75l2.789-4.867 5.133 8.898c0.555 0.953 1.773 1.281 2.727 0.727 0.961-0.547 1.289-1.773 0.734-2.727z"></path>
<path d="M1.414 14.836c-0.898 1.5-1.414 3.266-1.414 5.141 0 5.508 4.492 10 10 10h12c5.508 0 10-4.492 10-10 0-1.836-0.5-3.578-1.375-5.070l-3.453 2.031c0.523 0.891 0.828 1.922 0.828 3.039 0 3.359-2.641 6-6 6h-12c-3.359 0-6-2.641-6-6 0-1.141 0.313-2.188 0.852-3.086z"></path>
</symbol>
<symbol id="wallet" viewBox="0 0 32 32">
<path d="M6 2c-3.289 0-6 2.711-6 6v16c0 3.289 2.711 6 6 6h20c3.289 0 6-2.711 6-6v-16c0-3.289-2.711-6-6-6zM6 6h20c1.125 0 2 0.875 2 2h-24c0-1.125 0.875-2 2-2zM4 12h24v2l-8 4-16-4z"></path>
</symbol>
</defs>
</svg>
